<svg width="1200" height="720" viewBox="0 0 1200 720" fill="none" xmlns="http://www.w3.org/2000/svg">
  <defs>
    <linearGradient id="bg" x1="120" y1="80" x2="1060" y2="640" gradientUnits="userSpaceOnUse">
      <stop stop-color="#EAF2F8" />
      <stop offset="1" stop-color="#DDE9F3" />
    </linearGradient>
    <linearGradient id="body" x1="280" y1="350" x2="840" y2="510" gradientUnits="userSpaceOnUse">
      <stop stop-color="#165D94" />
      <stop offset="1" stop-color="#0F4A78" />
    </linearGradient>
    <linearGradient id="roof" x1="290" y1="228" x2="800" y2="274" gradientUnits="userSpaceOnUse">
      <stop stop-color="#1D2733" />
      <stop offset="1" stop-color="#111923" />
    </linearGradient>
    <linearGradient id="glass" x1="310" y1="290" x2="560" y2="408" gradientUnits="userSpaceOnUse">
      <stop stop-color="#FFFFFF" stop-opacity="0.68" />
      <stop offset="1" stop-color="#E5EDF5" stop-opacity="0.42" />
    </linearGradient>
  </defs>

  <rect x="12" y="12" width="1176" height="696" rx="36" fill="url(#bg)" stroke="#CFE0EE" stroke-width="4" />

  <ellipse cx="416" cy="562" rx="80" ry="80" fill="#1A2634" />
  <ellipse cx="780" cy="562" rx="80" ry="80" fill="#1A2634" />
  <ellipse cx="416" cy="562" rx="42" ry="42" fill="#2C3A4A" />
  <ellipse cx="780" cy="562" rx="42" ry="42" fill="#2C3A4A" />
  <ellipse cx="416" cy="562" rx="19" ry="19" fill="#718096" />
  <ellipse cx="780" cy="562" rx="19" ry="19" fill="#718096" />

  <path d="M268 420C268 384 297 356 333 356H760C803 356 841 378 862 415L898 476C914 503 895 538 864 538H306C284 538 268 520 268 498V420Z" fill="url(#body)" />
  <path d="M342 399H622C643 399 660 416 660 437V480H312V429C312 412 325 399 342 399Z" fill="#E8EDF3" />
  <path d="M306 429L438 410C450 408 462 418 462 430V480H312V429H306Z" fill="url(#glass)" />

  <rect x="286" y="452" width="36" height="28" rx="8" fill="#121A24" />
  <rect x="844" y="452" width="36" height="28" rx="8" fill="#121A24" />

  <rect x="338" y="248" width="20" height="146" rx="10" fill="#151E29" />
  <rect x="618" y="248" width="20" height="146" rx="10" fill="#151E29" />
  <rect x="776" y="248" width="20" height="146" rx="10" fill="#151E29" />
  <rect x="288" y="224" width="528" height="34" rx="17" fill="url(#roof)" />

  <rect x="560" y="378" width="192" height="84" rx="18" fill="#111B27" />
  <rect x="555" y="372" width="202" height="20" rx="10" fill="#1A2532" />
  <rect x="618" y="338" width="92" height="40" rx="16" fill="#0F1823" />

  <circle cx="447" cy="416" r="30" fill="#162332" />
  <circle cx="447" cy="416" r="15" fill="#2E4358" />
  <rect x="444" y="364" width="7" height="40" rx="3.5" transform="rotate(-20 444 364)" fill="#1C2A3A" />
</svg>
